<?xml version="1.0" encoding="UTF-8" standalone="no"?>
<!-- Created with Inkscape (http://www.inkscape.org/) -->

<svg
   width="210mm"
   height="297mm"
   viewBox="0 0 210 297"
   version="1.1"
   id="svg850"
   inkscape:version="1.1.1 (3bf5ae0d25, 2021-09-20)"
   sodipodi:docname="logo.svg"
   xmlns:inkscape="http://www.inkscape.org/namespaces/inkscape"
   xmlns:sodipodi="http://sodipodi.sourceforge.net/DTD/sodipodi-0.dtd"
   xmlns="http://www.w3.org/2000/svg"
   xmlns:svg="http://www.w3.org/2000/svg">
  <sodipodi:namedview
     id="namedview852"
     pagecolor="#ffffff"
     bordercolor="#666666"
     borderopacity="1.0"
     inkscape:pageshadow="2"
     inkscape:pageopacity="0.0"
     inkscape:pagecheckerboard="0"
     inkscape:document-units="mm"
     showgrid="false"
     inkscape:showpageshadow="false"
     showborder="false"
     inkscape:zoom="0.64052329"
     inkscape:cx="397.33138"
     inkscape:cy="567.50474"
     inkscape:window-width="1680"
     inkscape:window-height="971"
     inkscape:window-x="-9"
     inkscape:window-y="-9"
     inkscape:window-maximized="1"
     inkscape:current-layer="layer1" />
  <defs
     id="defs847" />
  <g
     inkscape:label="Layer 1"
     inkscape:groupmode="layer"
     id="layer1">
    <g
       id="g22247"
       transform="matrix(1.2183969,0,0,1.2183969,180.64652,-20.616562)"
       inkscape:export-filename="C:\Users\Lord Sam\Inkscape\lordsamdevwhite.png"
       inkscape:export-xdpi="96"
       inkscape:export-ydpi="96">
      <rect
         style="fill:#ffffff;stroke:none;stroke-width:0.264583"
         id="rect22142"
         width="138.79277"
         height="138.79277"
         x="-130.5313"
         y="72.287895" />
      <g
         id="g21952"
         transform="matrix(1.555384,0,0,1.555384,-19.363529,-29.985759)"
         style="stroke:none">
        <text
           xml:space="preserve"
           style="font-style:normal;font-variant:normal;font-weight:normal;font-stretch:normal;font-size:25.9792px;line-height:1.25;font-family:Choplin;-inkscape-font-specification:Choplin;fill:#000000;fill-opacity:1;stroke:none;stroke-width:0.649484"
           x="-42.953255"
           y="114.97553"
           id="text7283"><tspan
             sodipodi:role="line"
             id="tspan7281"
             style="font-style:normal;font-variant:normal;font-weight:normal;font-stretch:normal;font-family:Choplin;-inkscape-font-specification:Choplin;stroke:none;stroke-width:0.649484"
             x="-42.953255"
             y="114.97553">}</tspan></text>
        <path
           id="path14109"
           style="font-size:10.5833px;line-height:1.25;font-family:'Reem Kufi';-inkscape-font-specification:'Reem Kufi';stroke:none;stroke-width:0.181606"
           d="m -25.230975,95.3648 c -0.372899,0 -0.721924,0.07252 -1.046393,0.217804 -0.319626,0.140441 -0.60292,0.33659 -0.849901,0.588416 -0.246984,0.246984 -0.440416,0.532839 -0.580859,0.857308 -0.135598,0.324467 -0.203746,0.66837 -0.203746,1.031579 0,0.377739 0.06815,0.731139 0.203746,1.06045 0.140443,0.324467 0.333875,0.60776 0.580859,0.849901 0.246981,0.242142 0.530275,0.433462 0.849901,0.573902 0.324469,0.1356 0.673494,0.2036 1.046393,0.2036 0.368055,0 0.714064,-0.068 1.038533,-0.2036 0.329306,-0.14044 0.617426,-0.33403 0.864411,-0.581006 0.251824,-0.246986 0.447976,-0.53284 0.588417,-0.857307 0.140438,-0.324468 0.210699,-0.673042 0.210699,-1.04594 0,-0.363209 -0.07026,-0.707112 -0.210699,-1.031579 -0.140441,-0.324469 -0.336593,-0.610324 -0.588417,-0.857308 -0.246985,-0.251826 -0.535105,-0.447975 -0.864411,-0.588416 -0.324469,-0.145285 -0.670478,-0.217804 -1.038533,-0.217804 z m -6.792106,0.05819 v 5.26658 h 3.399454 v -0.733824 h -2.644019 V 95.42299 Z m 10.656489,0 v 5.26658 h 0.755585 v -1.895844 h 0.777048 0.130894 l 1.220212,1.895844 h 0.886479 l -1.307425,-2.084929 c 0.314782,-0.150127 0.537466,-0.365725 0.668223,-0.646609 0.130756,-0.285724 0.196037,-0.578667 0.196037,-0.878921 0,-0.353525 -0.08247,-0.653554 -0.247126,-0.900536 -0.159811,-0.246984 -0.382498,-0.433483 -0.668221,-0.559396 -0.285728,-0.130756 -0.61274,-0.196189 -0.980795,-0.196189 z m 4.823261,0 v 5.26658 h 1.714615 c 0.34868,0 0.68052,-0.0584 0.995305,-0.17458 0.314781,-0.12107 0.593097,-0.29294 0.835239,-0.515714 0.246986,-0.222769 0.438306,-0.491439 0.573906,-0.80622 0.140435,-0.319626 0.2107,-0.675739 0.2107,-1.068006 0,-0.319626 -0.05338,-0.639103 -0.159914,-0.958727 -0.101698,-0.319627 -0.266489,-0.610003 -0.494101,-0.871516 -0.227613,-0.266354 -0.522814,-0.477128 -0.886025,-0.632098 -0.363208,-0.159811 -0.806468,-0.239719 -1.329491,-0.239719 z m -8.68054,0.67578 c 0.353524,0 0.672996,0.08699 0.958727,0.261333 0.290563,0.17434 0.52079,0.411649 0.69029,0.711904 0.174343,0.295411 0.261333,0.624689 0.261333,0.987898 0,0.36321 -0.08473,0.692337 -0.254229,0.987748 -0.169494,0.295413 -0.397152,0.53046 -0.682884,0.7048 -0.285722,0.174343 -0.605203,0.261487 -0.958727,0.261487 -0.358371,0 -0.682668,-0.08714 -0.973237,-0.261487 -0.290565,-0.17434 -0.52079,-0.409387 -0.69029,-0.7048 -0.169496,-0.295411 -0.254381,-0.621975 -0.254381,-0.980341 0,-0.363212 0.08262,-0.69279 0.247277,-0.988201 0.169496,-0.300255 0.397006,-0.537562 0.682732,-0.711904 0.290572,-0.179183 0.615021,-0.268437 0.973389,-0.268437 z m 4.612864,0.05774 h 0.80622 c 0.246982,0 0.440572,0.05337 0.58101,0.159914 0.145285,0.101699 0.247203,0.227739 0.305317,0.377868 0.06296,0.145285 0.09447,0.283084 0.09447,0.413841 0,0.130754 -0.02924,0.271273 -0.08736,0.421399 -0.05811,0.145285 -0.16229,0.271174 -0.312421,0.377717 -0.145282,0.101697 -0.353494,0.152658 -0.624692,0.152658 h -0.762538 z m 4.82311,0 h 0.908092 c 0.232455,0 0.460419,0.0389 0.683187,0.116383 0.222767,0.07748 0.423436,0.196292 0.602624,0.356103 0.179183,0.15497 0.322263,0.35338 0.428804,0.59552 0.111386,0.237299 0.167018,0.52059 0.167018,0.849901 0,0.401954 -0.08744,0.743443 -0.261787,1.024326 -0.169499,0.280884 -0.401833,0.493917 -0.697242,0.639202 -0.29541,0.145282 -0.634336,0.217803 -1.016919,0.217803 h -0.813777 z m -10.000963,7.74418 -2.31739,5.48438 h 0.755585 l 0.544886,-1.32208 h 1.975949 l 0.522818,1.32208 h 0.878922 l -2.317239,-5.48438 z m 3.312393,0.0432 v 5.44115 h 0.733971 v -3.14552 l 1.859263,2.57872 h 0.01496 l 1.902945,-2.69511 v 3.26191 h 0.755434 v -5.44115 h -0.01451 l -2.644321,3.69782 -2.600187,-3.69782 z m -7.896236,0.1454 c -0.30994,0.0145 -0.583435,0.0822 -0.82073,0.2033 -0.232455,0.11623 -0.41639,0.28101 -0.55199,0.4941 -0.130754,0.20824 -0.196038,0.45294 -0.196038,0.73382 2e-6,0.23245 0.04327,0.43086 0.13044,0.59552 0.09201,0.15981 0.208257,0.2955 0.348697,0.40689 0.145284,0.11138 0.302986,0.20591 0.472486,0.2834 0.174342,0.0726 0.343654,0.14033 0.508309,0.20329 0.169494,0.063 0.326748,0.13547 0.472033,0.2178 0.150129,0.0823 0.271194,0.18169 0.363206,0.29791 0.09201,0.11623 0.1383,0.25675 0.1383,0.4214 0,0.19856 -0.05337,0.35852 -0.159914,0.47959 -0.101699,0.12107 -0.229849,0.21033 -0.384821,0.26844 -0.154968,0.0533 -0.314935,0.0801 -0.47959,0.0801 -0.222772,0 -0.457819,-0.0486 -0.7048,-0.1454 -0.246984,-0.0969 -0.455042,-0.21084 -0.62454,-0.3416 l -0.341291,0.60308 c 0.217927,0.15497 0.476945,0.28569 0.777199,0.39223 0.305098,0.10654 0.627138,0.16006 0.966134,0.16006 0.363212,0 0.673041,-0.0654 0.929707,-0.19619 0.261512,-0.13559 0.462483,-0.31501 0.602926,-0.53778 0.14044,-0.22761 0.2107,-0.48165 0.2107,-0.76254 0,-0.32931 -0.06543,-0.59315 -0.196189,-0.79171 -0.130757,-0.20339 -0.297655,-0.36336 -0.501054,-0.47959 -0.203395,-0.11623 -0.414171,-0.21558 -0.632098,-0.29791 -0.18887,-0.0678 -0.367978,-0.14288 -0.537479,-0.22521 -0.169495,-0.0872 -0.307754,-0.18396 -0.414295,-0.2905 -0.106545,-0.11139 -0.159612,-0.24451 -0.159612,-0.39948 0,-0.21792 0.07961,-0.38754 0.239418,-0.50861 0.159813,-0.12592 0.378124,-0.18864 0.654165,-0.18864 0.198553,0 0.404049,0.0336 0.617134,0.10142 0.21308,0.0678 0.411946,0.15042 0.595974,0.24728 l 0.283401,-0.58857 c -0.198557,-0.12107 -0.428777,-0.22268 -0.690289,-0.30501 -0.261507,-0.0872 -0.566816,-0.1309 -0.915499,-0.1309 z m 4.576739,1.50362 0.711753,1.81603 h -1.460234 z m -6.227117,7.12523 v 5.26658 h 1.714162 c 0.348683,0 0.680524,-0.0584 0.995305,-0.17458 0.314784,-0.12107 0.593252,-0.29294 0.835391,-0.51571 0.246984,-0.22277 0.43831,-0.49144 0.573906,-0.80622 0.140445,-0.31963 0.210699,-0.67544 0.210699,-1.06771 0,-0.31962 -0.05352,-0.6394 -0.160065,-0.95903 -0.101693,-0.31962 -0.266033,-0.61 -0.493647,-0.87151 -0.22761,-0.26635 -0.523267,-0.47713 -0.886479,-0.6321 -0.363211,-0.15981 -0.806315,-0.23972 -1.32934,-0.23972 z m 5.491786,0 v 5.26658 h 3.551961 v -0.73352 h -2.796527 v -1.5476 h 2.404149 v -0.73352 h -2.404149 v -1.51812 h 2.695107 v -0.73382 z m 4.292885,0 2.339307,5.5134 2.338852,-5.5134 h -0.900535 l -1.402193,3.66819 -1.467338,-3.66819 z m -9.029236,0.73382 h 0.908092 c 0.232452,0 0.459959,0.0385 0.682733,0.11593 0.222768,0.0775 0.423894,0.19644 0.603077,0.35626 0.179184,0.15496 0.321805,0.35337 0.428352,0.59552 0.111381,0.23729 0.167169,0.52044 0.167169,0.84975 0,0.40195 -0.08714,0.74359 -0.261485,1.02447 -0.169495,0.28088 -0.401832,0.49377 -0.697243,0.63905 -0.295414,0.14529 -0.634337,0.21826 -1.016918,0.21826 h -0.813777 z m 14.103855,0.25786 v 0.85715 h 0.711904 v -0.85715 z m 0,2.71642 v 0.5804 l -0.276751,1.07995 h 0.435305 l 0.55335,-1.07995 v -0.5804 z" />
      </g>
    </g>
  </g>
</svg>
